<mxfile host="Electron" modified="2024-05-17T12:54:51.831Z" agent="Mozilla/5.0 (Macintosh; Intel Mac OS X 10_15_7) AppleWebKit/537.36 (KHTML, like Gecko) draw.io/24.2.5 Chrome/120.0.6099.109 Electron/28.1.0 Safari/537.36" etag="GgCPj9-tTgXV08B3LQkw" version="24.2.5" type="device">
  <diagram name="Page-1" id="8dl3DKZyjdpJ0TNHHw6Z">
    <mxGraphModel dx="2074" dy="868" grid="1" gridSize="10" guides="1" tooltips="1" connect="1" arrows="1" fold="1" page="1" pageScale="1" pageWidth="850" pageHeight="1100" math="0" shadow="0">
      <root>
        <mxCell id="0" />
        <mxCell id="1" parent="0" />
        <mxCell id="a2yFGxT0MX_JKMXEXwrU-6" value="Access Control" style="rounded=1;whiteSpace=wrap;html=1;sketch=1;hachureGap=4;jiggle=2;curveFitting=1;fontFamily=Architects Daughter;fontSource=https%3A%2F%2Ffonts.googleapis.com%2Fcss%3Ffamily%3DArchitects%2BDaughter;fontSize=16;verticalAlign=bottom;" parent="1" vertex="1">
          <mxGeometry x="-50" y="315" width="950" height="435" as="geometry" />
        </mxCell>
        <mxCell id="a2yFGxT0MX_JKMXEXwrU-13" value="User&lt;div&gt;Model&lt;/div&gt;" style="edgeStyle=orthogonalEdgeStyle;rounded=0;hachureGap=4;orthogonalLoop=1;jettySize=auto;html=1;exitX=1;exitY=0.5;exitDx=0;exitDy=0;strokeColor=#FF00FF;strokeWidth=2;align=center;verticalAlign=middle;fontFamily=Architects Daughter;fontSource=https%3A%2F%2Ffonts.googleapis.com%2Fcss%3Ffamily%3DArchitects%2BDaughter;fontSize=16;fontColor=default;labelBackgroundColor=default;endArrow=classic;flowAnimation=1;" parent="1" source="a2yFGxT0MX_JKMXEXwrU-1" target="a2yFGxT0MX_JKMXEXwrU-2" edge="1">
          <mxGeometry x="-0.1111" y="23" relative="1" as="geometry">
            <mxPoint y="1" as="offset" />
          </mxGeometry>
        </mxCell>
        <mxCell id="a2yFGxT0MX_JKMXEXwrU-18" value="Failure" style="edgeStyle=orthogonalEdgeStyle;rounded=0;hachureGap=4;orthogonalLoop=1;jettySize=auto;html=1;exitX=0;exitY=0.871;exitDx=0;exitDy=0;entryX=0;entryY=0.5;entryDx=0;entryDy=0;strokeColor=#FF0000;strokeWidth=2;align=center;verticalAlign=middle;fontFamily=Architects Daughter;fontSource=https%3A%2F%2Ffonts.googleapis.com%2Fcss%3Ffamily%3DArchitects%2BDaughter;fontSize=11;fontColor=default;labelBackgroundColor=default;endArrow=classic;flowAnimation=1;curved=1;exitPerimeter=0;" parent="1" source="a2yFGxT0MX_JKMXEXwrU-1" target="a2yFGxT0MX_JKMXEXwrU-16" edge="1">
          <mxGeometry x="-0.2185" relative="1" as="geometry">
            <mxPoint as="offset" />
          </mxGeometry>
        </mxCell>
        <mxCell id="a2yFGxT0MX_JKMXEXwrU-1" value="Authentication&lt;br&gt;&lt;div&gt;&lt;ul&gt;&lt;li style=&quot;text-align: left;&quot;&gt;x.509 Client Certs&lt;/li&gt;&lt;li style=&quot;text-align: left;&quot;&gt;Static Token File&lt;/li&gt;&lt;li style=&quot;text-align: left;&quot;&gt;Bootstrap Tokens&lt;/li&gt;&lt;li style=&quot;text-align: left;&quot;&gt;Static Password File&lt;/li&gt;&lt;li style=&quot;text-align: left;&quot;&gt;Service Account Tokens&lt;/li&gt;&lt;li style=&quot;text-align: left;&quot;&gt;Webhook Token Authentication&lt;/li&gt;&lt;li style=&quot;text-align: left;&quot;&gt;Authenticating Proxy&lt;/li&gt;&lt;li style=&quot;text-align: left;&quot;&gt;Anonymous&lt;/li&gt;&lt;li style=&quot;text-align: left;&quot;&gt;User Impersonation&lt;/li&gt;&lt;/ul&gt;&lt;/div&gt;" style="rounded=1;whiteSpace=wrap;html=1;sketch=1;hachureGap=4;jiggle=2;curveFitting=1;fontFamily=Architects Daughter;fontSource=https%3A%2F%2Ffonts.googleapis.com%2Fcss%3Ffamily%3DArchitects%2BDaughter;fontSize=16;verticalAlign=top;fillColor=#fff2cc;strokeColor=#d6b656;" parent="1" vertex="1">
          <mxGeometry y="355" width="230" height="295" as="geometry" />
        </mxCell>
        <mxCell id="a2yFGxT0MX_JKMXEXwrU-14" style="edgeStyle=orthogonalEdgeStyle;rounded=0;hachureGap=4;orthogonalLoop=1;jettySize=auto;html=1;exitX=1;exitY=0.5;exitDx=0;exitDy=0;entryX=0;entryY=0.5;entryDx=0;entryDy=0;strokeColor=#FF00FF;strokeWidth=2;align=center;verticalAlign=middle;fontFamily=Architects Daughter;fontSource=https%3A%2F%2Ffonts.googleapis.com%2Fcss%3Ffamily%3DArchitects%2BDaughter;fontSize=16;fontColor=default;labelBackgroundColor=default;endArrow=classic;flowAnimation=1;" parent="1" source="a2yFGxT0MX_JKMXEXwrU-2" target="a2yFGxT0MX_JKMXEXwrU-3" edge="1">
          <mxGeometry relative="1" as="geometry" />
        </mxCell>
        <mxCell id="A9WHKj1NaMc6b1rDrTxo-18" value="Failure" style="edgeStyle=orthogonalEdgeStyle;curved=1;rounded=0;hachureGap=4;orthogonalLoop=1;jettySize=auto;html=1;exitX=0;exitY=0.75;exitDx=0;exitDy=0;entryX=0;entryY=0.5;entryDx=0;entryDy=0;strokeColor=#FF0000;strokeWidth=2;align=center;verticalAlign=middle;fontFamily=Architects Daughter;fontSource=https%3A%2F%2Ffonts.googleapis.com%2Fcss%3Ffamily%3DArchitects%2BDaughter;fontSize=11;fontColor=default;labelBackgroundColor=default;endArrow=classic;flowAnimation=1;" parent="1" source="a2yFGxT0MX_JKMXEXwrU-2" target="a2yFGxT0MX_JKMXEXwrU-17" edge="1">
          <mxGeometry relative="1" as="geometry">
            <Array as="points">
              <mxPoint x="280" y="576" />
              <mxPoint x="280" y="685" />
            </Array>
          </mxGeometry>
        </mxCell>
        <mxCell id="a2yFGxT0MX_JKMXEXwrU-2" value="Authorization (e.g. RBAC)&lt;div&gt;&lt;br&gt;&lt;/div&gt;&lt;div&gt;&lt;b&gt;Subject&lt;/b&gt;&lt;/div&gt;&lt;div style=&quot;font-size: 15px;&quot;&gt;&lt;font style=&quot;font-size: 15px;&quot;&gt;(User, Group or Process...)&lt;/font&gt;&lt;/div&gt;&lt;div style=&quot;font-size: 15px;&quot;&gt;+&lt;/div&gt;&lt;div style=&quot;font-size: 15px;&quot;&gt;&lt;br&gt;&lt;/div&gt;&lt;div&gt;&lt;b&gt;API Resources&lt;/b&gt;&lt;/div&gt;&lt;div&gt;(Pod, Node, Deployment...)&lt;/div&gt;&lt;div&gt;+&lt;/div&gt;&lt;div&gt;&lt;br&gt;&lt;/div&gt;&lt;div&gt;&lt;b&gt;Actions&lt;/b&gt;&lt;/div&gt;&lt;div&gt;(list, get, create, patch...)&lt;/div&gt;" style="rounded=1;whiteSpace=wrap;html=1;sketch=1;hachureGap=4;jiggle=2;curveFitting=1;fontFamily=Architects Daughter;fontSource=https%3A%2F%2Ffonts.googleapis.com%2Fcss%3Ffamily%3DArchitects%2BDaughter;fontSize=16;verticalAlign=top;fillColor=#dae8fc;strokeColor=#6c8ebf;" parent="1" vertex="1">
          <mxGeometry x="320" y="355" width="229" height="295" as="geometry" />
        </mxCell>
        <mxCell id="A9WHKj1NaMc6b1rDrTxo-39" value="Query" style="edgeStyle=orthogonalEdgeStyle;curved=1;rounded=0;hachureGap=4;orthogonalLoop=1;jettySize=auto;html=1;exitX=0.5;exitY=1;exitDx=0;exitDy=0;entryX=1;entryY=0.5;entryDx=0;entryDy=0;strokeColor=#FF00FF;strokeWidth=2;align=center;verticalAlign=middle;fontFamily=Architects Daughter;fontSource=https%3A%2F%2Ffonts.googleapis.com%2Fcss%3Ffamily%3DArchitects%2BDaughter;fontSize=11;fontColor=default;labelBackgroundColor=default;endArrow=classic;flowAnimation=1;" parent="1" source="a2yFGxT0MX_JKMXEXwrU-3" target="A9WHKj1NaMc6b1rDrTxo-23" edge="1">
          <mxGeometry x="0.0591" y="-15" relative="1" as="geometry">
            <mxPoint x="735" y="790" as="targetPoint" />
            <mxPoint as="offset" />
          </mxGeometry>
        </mxCell>
        <mxCell id="A9WHKj1NaMc6b1rDrTxo-43" style="edgeStyle=orthogonalEdgeStyle;curved=1;rounded=0;hachureGap=4;orthogonalLoop=1;jettySize=auto;html=1;exitX=1;exitY=0.5;exitDx=0;exitDy=0;strokeColor=#FF00FF;strokeWidth=2;align=center;verticalAlign=middle;fontFamily=Architects Daughter;fontSource=https%3A%2F%2Ffonts.googleapis.com%2Fcss%3Ffamily%3DArchitects%2BDaughter;fontSize=11;fontColor=default;labelBackgroundColor=default;endArrow=classic;flowAnimation=1;entryX=0.005;entryY=0.63;entryDx=0;entryDy=0;entryPerimeter=0;" parent="1" source="a2yFGxT0MX_JKMXEXwrU-3" target="A9WHKj1NaMc6b1rDrTxo-44" edge="1">
          <mxGeometry relative="1" as="geometry">
            <mxPoint x="980" y="503" as="targetPoint" />
          </mxGeometry>
        </mxCell>
        <mxCell id="a2yFGxT0MX_JKMXEXwrU-3" value="Admission&lt;div style=&quot;font-size: 16px;&quot;&gt;Control&lt;/div&gt;" style="rounded=1;whiteSpace=wrap;html=1;sketch=1;hachureGap=4;jiggle=2;curveFitting=1;fontFamily=Architects Daughter;fontSource=https%3A%2F%2Ffonts.googleapis.com%2Fcss%3Ffamily%3DArchitects%2BDaughter;fontSize=16;verticalAlign=top;fillColor=#d5e8d4;strokeColor=#82b366;" parent="1" vertex="1">
          <mxGeometry x="640" y="355" width="190" height="295" as="geometry" />
        </mxCell>
        <mxCell id="a2yFGxT0MX_JKMXEXwrU-11" style="edgeStyle=orthogonalEdgeStyle;rounded=0;hachureGap=4;orthogonalLoop=1;jettySize=auto;html=1;exitX=0.16;exitY=0.55;exitDx=0;exitDy=0;exitPerimeter=0;fontFamily=Architects Daughter;fontSource=https%3A%2F%2Ffonts.googleapis.com%2Fcss%3Ffamily%3DArchitects%2BDaughter;flowAnimation=1;strokeWidth=2;strokeColor=#FF00FF;fontSize=16;curved=1;" parent="1" source="a2yFGxT0MX_JKMXEXwrU-4" target="a2yFGxT0MX_JKMXEXwrU-1" edge="1">
          <mxGeometry relative="1" as="geometry" />
        </mxCell>
        <mxCell id="a2yFGxT0MX_JKMXEXwrU-4" value="K8S&lt;div&gt;API&lt;/div&gt;" style="ellipse;shape=cloud;whiteSpace=wrap;html=1;sketch=1;hachureGap=4;jiggle=2;curveFitting=1;fontFamily=Architects Daughter;fontSource=https%3A%2F%2Ffonts.googleapis.com%2Fcss%3Ffamily%3DArchitects%2BDaughter;fontSize=16;fillColor=#ffcd28;gradientColor=#ffa500;strokeColor=#d79b00;" parent="1" vertex="1">
          <mxGeometry x="375" y="250" width="120" height="80" as="geometry" />
        </mxCell>
        <mxCell id="a2yFGxT0MX_JKMXEXwrU-16" value="Error 401" style="shape=process;whiteSpace=wrap;html=1;backgroundOutline=1;sketch=1;hachureGap=4;jiggle=2;curveFitting=1;fontFamily=Architects Daughter;fontSource=https%3A%2F%2Ffonts.googleapis.com%2Fcss%3Ffamily%3DArchitects%2BDaughter;fontSize=16;labelBackgroundColor=default;fillColor=#f8cecc;strokeColor=#b85450;" parent="1" vertex="1">
          <mxGeometry x="10" y="670" width="120" height="30" as="geometry" />
        </mxCell>
        <mxCell id="a2yFGxT0MX_JKMXEXwrU-17" value="Error 403" style="shape=process;whiteSpace=wrap;html=1;backgroundOutline=1;sketch=1;hachureGap=4;jiggle=2;curveFitting=1;fontFamily=Architects Daughter;fontSource=https%3A%2F%2Ffonts.googleapis.com%2Fcss%3Ffamily%3DArchitects%2BDaughter;fontSize=16;labelBackgroundColor=default;fillColor=#f8cecc;strokeColor=#b85450;" parent="1" vertex="1">
          <mxGeometry x="320" y="670" width="120" height="30" as="geometry" />
        </mxCell>
        <mxCell id="a2yFGxT0MX_JKMXEXwrU-20" style="edgeStyle=orthogonalEdgeStyle;curved=1;rounded=0;hachureGap=4;orthogonalLoop=1;jettySize=auto;html=1;exitX=0.5;exitY=1;exitDx=0;exitDy=0;strokeColor=#FF0000;strokeWidth=2;align=center;verticalAlign=middle;fontFamily=Architects Daughter;fontSource=https%3A%2F%2Ffonts.googleapis.com%2Fcss%3Ffamily%3DArchitects%2BDaughter;fontSize=11;fontColor=default;labelBackgroundColor=default;endArrow=classic;flowAnimation=1;" parent="1" edge="1">
          <mxGeometry relative="1" as="geometry">
            <mxPoint x="436" y="760" as="sourcePoint" />
            <mxPoint x="436" y="760" as="targetPoint" />
          </mxGeometry>
        </mxCell>
        <mxCell id="A9WHKj1NaMc6b1rDrTxo-1" value="Human User" style="shape=umlActor;verticalLabelPosition=bottom;verticalAlign=top;html=1;outlineConnect=0;sketch=1;hachureGap=4;jiggle=2;curveFitting=1;fontFamily=Architects Daughter;fontSource=https%3A%2F%2Ffonts.googleapis.com%2Fcss%3Ffamily%3DArchitects%2BDaughter;fontSize=16;" parent="1" vertex="1">
          <mxGeometry x="560" y="130" width="30" height="60" as="geometry" />
        </mxCell>
        <mxCell id="A9WHKj1NaMc6b1rDrTxo-2" value="" style="aspect=fixed;sketch=0;html=1;dashed=0;whitespace=wrap;fillColor=#2875E2;strokeColor=#ffffff;points=[[0.005,0.63,0],[0.1,0.2,0],[0.9,0.2,0],[0.5,0,0],[0.995,0.63,0],[0.72,0.99,0],[0.5,1,0],[0.28,0.99,0]];shape=mxgraph.kubernetes.icon2;kubernetesLabel=1;prIcon=pod;hachureGap=4;jiggle=2;curveFitting=1;fontFamily=Architects Daughter;fontSource=https%3A%2F%2Ffonts.googleapis.com%2Fcss%3Ffamily%3DArchitects%2BDaughter;" parent="1" vertex="1">
          <mxGeometry x="269.99" y="120" width="62.5" height="60" as="geometry" />
        </mxCell>
        <mxCell id="A9WHKj1NaMc6b1rDrTxo-3" value="Service Account" style="text;html=1;align=center;verticalAlign=middle;whiteSpace=wrap;rounded=0;fontFamily=Architects Daughter;fontSource=https%3A%2F%2Ffonts.googleapis.com%2Fcss%3Ffamily%3DArchitects%2BDaughter;fontSize=16;" parent="1" vertex="1">
          <mxGeometry x="230.62" y="180" width="141.25" height="30" as="geometry" />
        </mxCell>
        <mxCell id="A9WHKj1NaMc6b1rDrTxo-4" style="edgeStyle=orthogonalEdgeStyle;rounded=0;hachureGap=4;orthogonalLoop=1;jettySize=auto;html=1;exitX=0.995;exitY=0.63;exitDx=0;exitDy=0;entryX=0.283;entryY=0.163;entryDx=0;entryDy=0;entryPerimeter=0;fontFamily=Architects Daughter;fontSource=https%3A%2F%2Ffonts.googleapis.com%2Fcss%3Ffamily%3DArchitects%2BDaughter;flowAnimation=1;strokeWidth=2;exitPerimeter=0;curved=1;" parent="1" source="A9WHKj1NaMc6b1rDrTxo-2" target="a2yFGxT0MX_JKMXEXwrU-4" edge="1">
          <mxGeometry relative="1" as="geometry" />
        </mxCell>
        <mxCell id="A9WHKj1NaMc6b1rDrTxo-5" style="edgeStyle=orthogonalEdgeStyle;rounded=0;hachureGap=4;orthogonalLoop=1;jettySize=auto;html=1;entryX=0.683;entryY=0.175;entryDx=0;entryDy=0;entryPerimeter=0;strokeColor=default;strokeWidth=2;align=center;verticalAlign=middle;fontFamily=Architects Daughter;fontSource=https%3A%2F%2Ffonts.googleapis.com%2Fcss%3Ffamily%3DArchitects%2BDaughter;fontSize=11;fontColor=default;labelBackgroundColor=default;endArrow=classic;flowAnimation=1;curved=1;" parent="1" source="A9WHKj1NaMc6b1rDrTxo-1" target="a2yFGxT0MX_JKMXEXwrU-4" edge="1">
          <mxGeometry relative="1" as="geometry" />
        </mxCell>
        <mxCell id="A9WHKj1NaMc6b1rDrTxo-9" value="" style="aspect=fixed;sketch=0;html=1;dashed=0;whitespace=wrap;fillColor=#2875E2;strokeColor=#ffffff;points=[[0.005,0.63,0],[0.1,0.2,0],[0.9,0.2,0],[0.5,0,0],[0.995,0.63,0],[0.72,0.99,0],[0.5,1,0],[0.28,0.99,0]];shape=mxgraph.kubernetes.icon2;kubernetesLabel=1;prIcon=api;hachureGap=4;jiggle=2;curveFitting=1;fontFamily=Architects Daughter;fontSource=https%3A%2F%2Ffonts.googleapis.com%2Fcss%3Ffamily%3DArchitects%2BDaughter;fontSize=11;fontColor=default;labelBackgroundColor=default;" parent="1" vertex="1">
          <mxGeometry x="470" y="250" width="50" height="48" as="geometry" />
        </mxCell>
        <mxCell id="A9WHKj1NaMc6b1rDrTxo-10" value="&lt;div&gt;e.g.&lt;/div&gt;&lt;div&gt;&lt;br&gt;&lt;/div&gt;&lt;div&gt;Certificate&lt;br&gt;in&lt;div&gt;Kubeconfig&lt;/div&gt;&lt;/div&gt;" style="whiteSpace=wrap;html=1;shape=mxgraph.basic.document;sketch=1;hachureGap=4;jiggle=2;curveFitting=1;fontFamily=Architects Daughter;fontSource=https%3A%2F%2Ffonts.googleapis.com%2Fcss%3Ffamily%3DArchitects%2BDaughter;fontSize=11;labelBackgroundColor=none;fillColor=#fff2cc;strokeColor=#d6b656;" parent="1" vertex="1">
          <mxGeometry x="620" y="100" width="90" height="90" as="geometry" />
        </mxCell>
        <mxCell id="A9WHKj1NaMc6b1rDrTxo-21" style="edgeStyle=orthogonalEdgeStyle;curved=1;rounded=0;hachureGap=4;orthogonalLoop=1;jettySize=auto;html=1;exitX=0.5;exitY=1;exitDx=0;exitDy=0;entryX=0.5;entryY=0;entryDx=0;entryDy=0;strokeColor=#999999;strokeWidth=2;align=center;verticalAlign=middle;fontFamily=Architects Daughter;fontSource=https%3A%2F%2Ffonts.googleapis.com%2Fcss%3Ffamily%3DArchitects%2BDaughter;fontSize=16;fontColor=default;labelBackgroundColor=default;endArrow=classic;flowAnimation=1;dashed=1;dashPattern=1 4;" parent="1" source="A9WHKj1NaMc6b1rDrTxo-19" target="A9WHKj1NaMc6b1rDrTxo-20" edge="1">
          <mxGeometry relative="1" as="geometry" />
        </mxCell>
        <mxCell id="A9WHKj1NaMc6b1rDrTxo-19" value="PSP&lt;div style=&quot;font-size: 16px;&quot;&gt;(Deprecated)&lt;/div&gt;" style="rounded=1;whiteSpace=wrap;html=1;sketch=1;hachureGap=4;jiggle=2;curveFitting=1;fontFamily=Architects Daughter;fontSource=https%3A%2F%2Ffonts.googleapis.com%2Fcss%3Ffamily%3DArchitects%2BDaughter;fontSize=16;fontColor=default;labelBackgroundColor=default;" parent="1" vertex="1">
          <mxGeometry x="667.5" y="420" width="135" height="70" as="geometry" />
        </mxCell>
        <mxCell id="A9WHKj1NaMc6b1rDrTxo-20" value="Pod Security Admission&lt;div style=&quot;font-size: 16px;&quot;&gt;(PSA)&lt;/div&gt;" style="rounded=1;whiteSpace=wrap;html=1;sketch=1;hachureGap=4;jiggle=2;curveFitting=1;fontFamily=Architects Daughter;fontSource=https%3A%2F%2Ffonts.googleapis.com%2Fcss%3Ffamily%3DArchitects%2BDaughter;fontSize=16;fontColor=default;labelBackgroundColor=default;" parent="1" vertex="1">
          <mxGeometry x="667.5" y="540" width="135" height="70" as="geometry" />
        </mxCell>
        <mxCell id="A9WHKj1NaMc6b1rDrTxo-23" value="Open Policy Agent" style="shape=image;verticalLabelPosition=bottom;labelBackgroundColor=default;verticalAlign=top;aspect=fixed;imageAspect=0;image=https://static-00.iconduck.com/assets.00/opa-color-icon-436x512-k1koe8mi.png;fontFamily=Gloria Hallelujah;fontSource=https%3A%2F%2Ffonts.googleapis.com%2Fcss%3Ffamily%3DGloria%2BHallelujah;fontSize=16;" parent="1" vertex="1">
          <mxGeometry x="585.75" y="780" width="81.75" height="96" as="geometry" />
        </mxCell>
        <mxCell id="A9WHKj1NaMc6b1rDrTxo-41" value="Rego&lt;div style=&quot;font-size: 16px;&quot;&gt;Policies&lt;/div&gt;" style="whiteSpace=wrap;html=1;shape=mxgraph.basic.document;sketch=1;hachureGap=4;jiggle=2;curveFitting=1;fontFamily=Architects Daughter;fontSource=https%3A%2F%2Ffonts.googleapis.com%2Fcss%3Ffamily%3DArchitects%2BDaughter;fontSize=16;fontColor=default;labelBackgroundColor=default;" parent="1" vertex="1">
          <mxGeometry x="384.5" y="778" width="100" height="100" as="geometry" />
        </mxCell>
        <mxCell id="A9WHKj1NaMc6b1rDrTxo-42" style="edgeStyle=orthogonalEdgeStyle;curved=1;rounded=0;hachureGap=4;orthogonalLoop=1;jettySize=auto;html=1;exitX=0;exitY=0.5;exitDx=0;exitDy=0;entryX=1;entryY=0.5;entryDx=0;entryDy=0;entryPerimeter=0;strokeColor=#FF00FF;strokeWidth=2;align=center;verticalAlign=middle;fontFamily=Architects Daughter;fontSource=https%3A%2F%2Ffonts.googleapis.com%2Fcss%3Ffamily%3DArchitects%2BDaughter;fontSize=11;fontColor=default;labelBackgroundColor=default;endArrow=classic;flowAnimation=1;startArrow=classic;startFill=1;" parent="1" source="A9WHKj1NaMc6b1rDrTxo-23" target="A9WHKj1NaMc6b1rDrTxo-41" edge="1">
          <mxGeometry relative="1" as="geometry" />
        </mxCell>
        <mxCell id="A9WHKj1NaMc6b1rDrTxo-44" value="" style="aspect=fixed;sketch=0;html=1;dashed=0;whitespace=wrap;fillColor=#2875E2;strokeColor=#ffffff;points=[[0.005,0.63,0],[0.1,0.2,0],[0.9,0.2,0],[0.5,0,0],[0.995,0.63,0],[0.72,0.99,0],[0.5,1,0],[0.28,0.99,0]];shape=mxgraph.kubernetes.icon2;kubernetesLabel=1;prIcon=etcd;hachureGap=4;jiggle=2;curveFitting=1;fontFamily=Architects Daughter;fontSource=https%3A%2F%2Ffonts.googleapis.com%2Fcss%3Ffamily%3DArchitects%2BDaughter;fontSize=11;fontColor=default;labelBackgroundColor=default;" parent="1" vertex="1">
          <mxGeometry x="940" y="460" width="69.79" height="67" as="geometry" />
        </mxCell>
        <mxCell id="A9WHKj1NaMc6b1rDrTxo-45" value="Failure" style="edgeStyle=orthogonalEdgeStyle;curved=1;rounded=0;hachureGap=4;orthogonalLoop=1;jettySize=auto;html=1;exitX=0;exitY=0.75;exitDx=0;exitDy=0;strokeColor=#FF0000;strokeWidth=2;align=center;verticalAlign=middle;fontFamily=Architects Daughter;fontSource=https%3A%2F%2Ffonts.googleapis.com%2Fcss%3Ffamily%3DArchitects%2BDaughter;fontSize=11;fontColor=default;labelBackgroundColor=default;endArrow=classic;flowAnimation=1;entryX=0;entryY=0.5;entryDx=0;entryDy=0;" parent="1" source="a2yFGxT0MX_JKMXEXwrU-3" target="A9WHKj1NaMc6b1rDrTxo-48" edge="1">
          <mxGeometry relative="1" as="geometry">
            <mxPoint x="640" y="591" as="sourcePoint" />
            <mxPoint x="640" y="700" as="targetPoint" />
            <Array as="points">
              <mxPoint x="590" y="576" />
              <mxPoint x="590" y="685" />
            </Array>
          </mxGeometry>
        </mxCell>
        <mxCell id="A9WHKj1NaMc6b1rDrTxo-48" value="Rejected" style="rounded=1;whiteSpace=wrap;html=1;sketch=1;hachureGap=4;jiggle=2;curveFitting=1;fontFamily=Architects Daughter;fontSource=https%3A%2F%2Ffonts.googleapis.com%2Fcss%3Ffamily%3DArchitects%2BDaughter;fontSize=16;fontColor=default;labelBackgroundColor=default;arcSize=50;" parent="1" vertex="1">
          <mxGeometry x="630" y="670" width="80" height="30" as="geometry" />
        </mxCell>
      </root>
    </mxGraphModel>
  </diagram>
</mxfile>
